<svg width="75" height="72" viewBox="0 0 75 72" fill="none" xmlns="http://www.w3.org/2000/svg">
<g clip-path="url(#clip0_14_248)">
<path d="M82.4076 2.48276H7.24755C4.67315 2.48276 2.58618 4.48624 2.58618 6.95767V79.1113C2.58618 81.5827 4.67315 83.5862 7.24755 83.5862H82.4076C84.982 83.5862 87.0689 81.5827 87.0689 79.1113V6.95767C87.0689 4.48624 84.982 2.48276 82.4076 2.48276Z" fill="#3D5A98"/>
<path d="M50.6719 69.2831V43.5037H59.6836L61.0313 33.4575H50.6719V27.045C50.6719 24.1369 51.5156 22.1512 55.8574 22.1512H61.4004V13.1512C58.7163 12.8827 56.0189 12.755 53.3203 12.7687C45.3398 12.7687 39.8438 17.4375 39.8438 26.0494V33.4575H30.832V43.5037H39.8438V69.2831H50.6719Z" fill="white"/>
</g>
<defs>
<clipPath id="clip0_14_248">
<rect width="75" height="72" fill="white"/>
</clipPath>
</defs>
</svg>
