<svg width="74" height="71" viewBox="0 0 74 71" fill="none" xmlns="http://www.w3.org/2000/svg">
<path d="M56.0836 0.557373H17.3906C7.96288 0.557373 0.32019 7.85454 0.32019 16.856V53.7997C0.32019 62.8012 7.96288 70.0984 17.3906 70.0984H56.0836C65.5113 70.0984 73.154 62.8012 73.154 53.7997V16.856C73.154 7.85454 65.5113 0.557373 56.0836 0.557373Z" fill="url(#paint0_radial_14_235)"/>
<path d="M56.0836 0.557373H17.3906C7.96288 0.557373 0.32019 7.85454 0.32019 16.856V53.7997C0.32019 62.8012 7.96288 70.0984 17.3906 70.0984H56.0836C65.5113 70.0984 73.154 62.8012 73.154 53.7997V16.856C73.154 7.85454 65.5113 0.557373 56.0836 0.557373Z" fill="url(#paint1_radial_14_235)"/>
<path d="M36.7397 8.16342C29.013 8.16342 28.0431 8.19574 25.0086 8.32749C21.9797 8.46005 19.9122 8.91777 18.1033 9.58955C16.2318 10.2833 14.6445 11.2115 13.0633 12.7219C11.4805 14.232 10.5084 15.7475 9.77947 17.5335C9.07389 19.2612 8.59393 21.236 8.45765 24.1266C8.32194 27.0242 8.28638 27.9505 8.28638 35.3281C8.28638 42.7057 8.32052 43.6288 8.45822 46.5261C8.59763 49.4181 9.07702 51.3921 9.78004 53.1192C10.5072 54.9061 11.4794 56.4216 13.0613 57.9314C14.6423 59.4426 16.2295 60.3729 18.0996 61.0667C19.9099 61.7385 21.9777 62.1962 25.006 62.3288C28.0408 62.4605 29.0099 62.4929 36.7362 62.4929C44.4637 62.4929 45.4305 62.4605 48.465 62.3288C51.4939 62.1962 53.5637 61.7385 55.374 61.0667C57.2447 60.3729 58.8296 59.4426 60.4104 57.9314C61.9931 56.4216 62.965 54.9061 63.6942 53.12C64.3935 51.3921 64.8737 49.4175 65.016 46.5267C65.1522 43.6293 65.1878 42.7057 65.1878 35.3281C65.1878 27.9505 65.1522 27.0248 65.016 24.1271C64.8737 21.2352 64.3935 19.2615 63.6942 17.5343C62.965 15.7475 61.9931 14.232 60.4104 12.7219C58.8279 11.211 57.2452 10.2828 55.3723 9.58982C53.5586 8.91777 51.4899 8.45978 48.4611 8.32749C45.4262 8.19574 44.46 8.16342 36.7308 8.16342H36.7397ZM34.1873 13.0587C34.945 13.0576 35.7903 13.0587 36.7397 13.0587C44.3363 13.0587 45.2365 13.0848 48.2363 13.2149C51.0103 13.3361 52.5159 13.7786 53.5188 14.1505C54.8465 14.6427 55.7931 15.2313 56.7883 16.1824C57.7841 17.1331 58.4003 18.0385 58.9173 19.3063C59.3068 20.2625 59.7708 21.7 59.8971 24.3485C60.0334 27.2122 60.063 28.0722 60.063 35.3219C60.063 42.5715 60.0334 43.4318 59.8971 46.2952C59.7702 48.9438 59.3068 50.3813 58.9173 51.3378C58.4017 52.6055 57.7841 53.5082 56.7883 54.4584C55.7925 55.4092 54.8471 55.9976 53.5188 56.4901C52.517 56.8636 51.0103 57.305 48.2363 57.4261C45.237 57.5563 44.3363 57.5845 36.7397 57.5845C29.1427 57.5845 28.2423 57.5563 25.2433 57.4261C22.4693 57.3039 20.9637 56.8614 19.96 56.4895C18.6325 55.997 17.6839 55.4086 16.6882 54.4579C15.6924 53.5071 15.0761 52.6039 14.5592 51.3356C14.1697 50.3791 13.7057 48.9416 13.5793 46.2931C13.4431 43.4294 13.4158 42.5694 13.4158 35.3151C13.4158 28.0611 13.4431 27.2054 13.5793 24.3417C13.7062 21.6932 14.1697 20.2557 14.5592 19.2981C15.075 18.0304 15.6924 17.125 16.6884 16.1742C17.6842 15.2235 18.6325 14.6348 19.9603 14.1415C20.9632 13.768 22.4693 13.3266 25.2433 13.2049C27.8679 13.0916 28.885 13.0576 34.1873 13.0519V13.0587ZM51.9267 17.5691C50.0418 17.5691 48.5126 19.0278 48.5126 20.8278C48.5126 22.6274 50.0418 24.0875 51.9267 24.0875C53.8115 24.0875 55.3407 22.6274 55.3407 20.8278C55.3407 19.0281 53.8115 17.568 51.9267 17.568V17.5691ZM36.7397 21.3778C28.671 21.3778 22.1291 27.624 22.1291 35.3281C22.1291 43.0322 28.671 49.2755 36.7397 49.2755C44.8086 49.2755 51.3482 43.0322 51.3482 35.3281C51.3482 27.6243 44.808 21.3778 36.7391 21.3778H36.7397ZM36.7397 26.2731C41.9771 26.2731 46.2234 30.3269 46.2234 35.3281C46.2234 40.3288 41.9771 44.3831 36.7397 44.3831C31.5019 44.3831 27.2562 40.3288 27.2562 35.3281C27.2562 30.3269 31.5019 26.2731 36.7397 26.2731Z" fill="white"/>
<defs>
<radialGradient id="paint0_radial_14_235" cx="0" cy="0" r="1" gradientUnits="userSpaceOnUse" gradientTransform="translate(19.6667 75.4544) rotate(-90) scale(68.9203 67.1366)">
<stop stop-color="#FFDD55"/>
<stop offset="0.1" stop-color="#FFDD55"/>
<stop offset="0.5" stop-color="#FF543E"/>
<stop offset="1" stop-color="#C837AB"/>
</radialGradient>
<radialGradient id="paint1_radial_14_235" cx="0" cy="0" r="1" gradientUnits="userSpaceOnUse" gradientTransform="translate(-11.8798 5.56677) rotate(78.1598) scale(30.8652 132.756)">
<stop stop-color="#3771C8"/>
<stop offset="0.128" stop-color="#3771C8"/>
<stop offset="1" stop-color="#6600FF" stop-opacity="0"/>
</radialGradient>
</defs>
</svg>
