<svg width="100" height="101" viewBox="0 0 100 101" fill="none" xmlns="http://www.w3.org/2000/svg">
<path d="M88.7138 30.7292C88.2573 28.9927 87.357 27.4078 86.1031 26.1332C84.8492 24.8587 83.2858 23.9393 81.5694 23.4671C75.268 21.7501 49.9999 21.7501 49.9999 21.7501C49.9999 21.7501 24.7319 21.7501 18.4305 23.4671C16.7141 23.9393 15.1507 24.8587 13.8968 26.1332C12.6429 27.4078 11.7426 28.9927 11.2861 30.7292C9.59717 37.1343 9.59717 50.5 9.59717 50.5C9.59717 50.5 9.59717 63.8657 11.2861 70.2722C11.7426 72.0087 12.6429 73.5936 13.8968 74.8682C15.1507 76.1427 16.7141 77.0621 18.4305 77.5343C24.7319 79.2499 49.9999 79.2499 49.9999 79.2499C49.9999 79.2499 75.268 79.2499 81.5694 77.5343C83.2858 77.0621 84.8492 76.1427 86.1031 74.8682C87.357 73.5936 88.2573 72.0087 88.7138 70.2722C90.4027 63.8657 90.4027 50.5 90.4027 50.5C90.4027 50.5 90.4027 37.1343 88.7138 30.7292Z" fill="#EA5A47"/>
<path d="M41.7361 62.634L62.8555 50.5L41.7361 38.366V62.634Z" fill="white"/>
<path d="M88.7138 30.7292C88.2573 28.9927 87.357 27.4078 86.1031 26.1332C84.8492 24.8587 83.2858 23.9393 81.5694 23.4671C75.268 21.7501 49.9999 21.7501 49.9999 21.7501C49.9999 21.7501 24.7319 21.7501 18.4305 23.4671C16.7141 23.9393 15.1507 24.8587 13.8968 26.1332C12.6429 27.4078 11.7426 28.9927 11.2861 30.7292C9.59717 37.1343 9.59717 50.5 9.59717 50.5C9.59717 50.5 9.59717 63.8657 11.2861 70.2722C11.7426 72.0087 12.6429 73.5936 13.8968 74.8682C15.1507 76.1427 16.7141 77.0621 18.4305 77.5343C24.7319 79.2499 49.9999 79.2499 49.9999 79.2499C49.9999 79.2499 75.268 79.2499 81.5694 77.5343C83.2858 77.0621 84.8492 76.1427 86.1031 74.8682C87.357 73.5936 88.2573 72.0087 88.7138 70.2722C90.4027 63.8657 90.4027 50.5 90.4027 50.5C90.4027 50.5 90.4027 37.1343 88.7138 30.7292Z" stroke="black" stroke-width="2" stroke-miterlimit="10"/>
<path d="M41.7361 62.634L62.8555 50.5L41.7361 38.366V62.634Z" stroke="black" stroke-width="2" stroke-miterlimit="10" stroke-linecap="round" stroke-linejoin="round"/>
</svg>
